<svg
  display="block"
  role="presentation"
  viewBox="0 0 24 24"
  xmlns="http://www.w3.org/2000/svg"
>
  <path
    d="M 17 12.94 C 15.76 12.94 14.55 12.74 13.43 12.37 C 13.33 12.33 13.22 12.32 13.12 12.32 C 12.86 12.32 12.61 12.42 12.41 12.61 L 10.21 14.81 C 7.38 13.36 5.06 11.05 3.62 8.22 L 5.82 6.02 C 6.1 5.74 6.18 5.35 6.07 5 C 5.7 3.88 5.5 2.68 5.5 1.43 C 5.5 0.88 5.05 0.43 4.5 0.43 L 1 0.43 C 0.45 0.43 0 0.88 0 1.43 C 0 10.82 7.61 18.43 17 18.43 C 17.55 18.43 18 17.98 18 17.43 L 18 13.94 C 18 13.39 17.55 12.94 17 12.94 Z M 2.03 2.43 L 3.53 2.43 C 3.6 3.32 3.75 4.19 3.99 5.02 L 2.79 6.22 C 2.38 5.02 2.12 3.75 2.03 2.43 Z M 16 16.4 C 14.68 16.31 13.41 16.05 12.2 15.65 L 13.39 14.46 C 14.24 14.7 15.11 14.85 15.99 14.91 L 15.99 16.4 Z M 15 6.43 L 12.41 6.43 L 17.43 1.41 L 16.02 0 L 11 5.02 L 11 2.43 L 9 2.43 L 9 8.43 L 15 8.43 Z"
    fill="var(--esondr, rgb(255,255,255))"
    height="18.430040007152556px"
    id="O_BU_reoJ"
    transform="translate(3 2.785)"
    width="18px"
  />
</svg>
