<svg
  xmlns="http://www.w3.org/2000/svg"
  xmlns:xlink="http://www.w3.org/1999/xlink"
  viewBox="0 0 90 81"
>
  <g>
    <path
      d="M 0 41.507 C 0 19.501 17.839 1.662 39.845 1.662 C 61.851 1.662 79.69 19.501 79.69 41.507 C 79.69 63.513 61.851 81.352 39.845 81.352 C 17.839 81.352 0 63.513 0 41.507 Z"
      fill="rgb(132,71,0)"
    ></path>
    <path
      d="M 1.662 40.676 C 1.662 18.67 19.501 0.831 41.507 0.831 C 63.513 0.831 81.352 18.67 81.352 40.676 C 81.352 62.682 63.513 80.521 41.507 80.521 C 19.501 80.521 1.662 62.682 1.662 40.676 Z"
      fill="rgb(194,108,6)"
    ></path>
    <g transform="translate(11.611 0)">
      <path
        d="M 0.02 0 L 78.113 0 L 78.113 78.093 L 0.02 78.093 Z"
        fill="transparent"
      ></path>
      <path
        d="M 76.943 48.501 C 71.753 69.429 50.581 82.187 29.653 76.997 C 8.725 71.807 -4.033 50.634 1.157 29.706 C 6.347 8.778 27.52 -3.98 48.448 1.21 C 69.375 6.4 82.133 27.573 76.943 48.501 Z"
        fill="rgb(244,155,51)"
      ></path>
      <path
        d="M 39.061 78.086 C 35.875 78.063 32.704 77.654 29.618 76.866 C 8.757 71.622 -3.932 50.493 1.24 29.614 C 5.064 14.299 17.735 2.794 33.346 0.46 C 48.958 -1.873 64.439 5.424 72.574 18.951 C 77.952 27.907 79.515 38.645 76.915 48.762 C 74.315 58.88 67.768 67.533 58.739 72.787 C 52.765 76.265 45.974 78.093 39.061 78.086 Z M 39.061 7.324 C 24.502 7.336 11.821 17.256 8.304 31.384 C 5.158 42.516 8.321 54.478 16.559 62.6 C 24.797 70.721 36.803 73.714 47.889 70.409 C 58.975 67.104 67.383 58.026 69.829 46.719 C 74.062 29.727 63.724 12.519 46.735 8.276 C 44.224 7.651 41.648 7.331 39.061 7.324 Z"
        fill="rgb(244,155,51)"
      ></path>
      <path
        d="M 75.772 25.784 L 0.522 45.305 C -2.697 25.413 9.753 6.34 29.258 1.28 C 48.763 -3.78 68.915 6.836 75.772 25.784 Z"
        fill="rgb(244,155,51)"
      ></path>
      <path
        d="M 69.829 46.721 C 65.594 63.72 48.38 74.068 31.38 69.833 C 14.381 65.599 4.033 48.385 8.268 31.385 C 12.502 14.386 29.716 4.038 46.716 8.273 C 63.715 12.507 74.063 29.721 69.829 46.721 Z"
        fill="rgb(244,155,51)"
      ></path>
      <path
        d="M 58.581 24.652 L 58.581 27.922 L 20.76 47.198 L 20.76 43.928 L 22.139 43.221 C 22.662 42.95 23.088 42.524 23.359 42.001 C 23.648 41.503 23.776 40.928 23.724 40.354 L 23.724 39.134 C 23.723 33.122 27.093 27.617 32.448 24.884 C 35.083 23.541 38.038 22.95 40.988 23.175 C 43.932 23.402 46.755 24.446 49.138 26.19 L 46.149 27.714 C 42.093 25.427 37.128 25.466 33.108 27.817 C 29.089 30.169 26.622 34.478 26.628 39.134 C 26.628 39.705 26.665 40.275 26.738 40.842 Z M 28.727 46.368 L 58.582 31.192 L 58.582 34.448 L 57.202 35.156 C 56.677 35.424 56.25 35.851 55.983 36.377 C 55.699 36.872 55.571 37.442 55.617 38.012 L 55.617 39.231 C 55.582 45.217 52.209 50.682 46.876 53.399 C 41.543 56.115 35.139 55.629 30.277 52.139 L 33.096 50.699 L 33.253 50.614 C 39.522 54.124 47.448 51.936 51.03 45.708 C 52.166 43.726 52.763 41.48 52.761 39.195 C 52.761 38.62 52.724 38.045 52.651 37.475 L 20.76 53.688 L 20.76 50.454 L 28.727 46.368 Z"
        fill="rgb(255,255,255)"
      ></path>
    </g>
  </g>
</svg>
