<svg xmlns="http://www.w3.org/2000/svg" xmlns:xlink="http://www.w3.org/1999/xlink" viewBox="0 0 90 81">
  <g>
    <path d="M 0 41.507 C 0 19.501 17.839 1.662 39.845 1.662 C 61.851 1.662 79.69 19.501 79.69 41.507 C 79.69 63.513 61.851 81.352 39.845 81.352 C 17.839 81.352 0 63.513 0 41.507 Z" fill="rgb(132,71,0)" />
    <path d="M 1.662 40.676 C 1.662 18.67 19.501 0.831 41.507 0.831 C 63.513 0.831 81.352 18.67 81.352 40.676 C 81.352 62.682 63.513 80.521 41.507 80.521 C 19.501 80.521 1.662 62.682 1.662 40.676 Z" fill="rgb(194,108,6)" />
    <g transform="translate(11.611 0)">
      <path d="M 0.02 0 L 78.113 0 L 78.113 78.093 L 0.02 78.093 Z" fill="transparent" />
      <path d="M 76.943 48.501 C 71.753 69.429 50.581 82.187 29.653 76.997 C 8.725 71.807 -4.033 50.634 1.157 29.706 C 6.347 8.778 27.52 -3.98 48.448 1.21 C 69.375 6.4 82.133 27.573 76.943 48.501 Z" fill="rgb(244,155,51)" />
      <path d="M 39.064 78.088 C 35.879 78.065 32.708 77.655 29.621 76.867 C 8.76 71.624 -3.93 50.494 1.243 29.616 C 5.068 14.301 17.738 2.796 33.35 0.462 C 48.961 -1.872 64.442 5.425 72.578 18.953 C 77.955 27.909 79.519 38.646 76.919 48.764 C 74.318 58.882 67.772 67.535 58.743 72.789 C 52.768 76.266 45.977 78.095 39.064 78.088 Z M 39.064 7.326 C 24.505 7.337 11.824 17.258 8.308 31.385 C 5.161 42.517 8.324 54.48 16.562 62.601 C 24.8 70.723 36.807 73.715 47.893 70.41 C 58.979 67.106 67.387 58.027 69.833 46.721 C 74.066 29.728 63.728 12.52 46.738 8.278 C 44.228 7.652 41.651 7.333 39.064 7.326 Z" fill="rgb(244,155,51)" />
      <path d="M 75.772 25.784 L 0.522 45.305 C -2.697 25.413 9.753 6.34 29.258 1.28 C 48.763 -3.78 68.915 6.836 75.772 25.784 Z" fill="rgb(244,155,51)" />
      <path d="M 69.832 46.721 C 65.597 63.721 48.384 74.069 31.384 69.835 C 14.385 65.6 4.037 48.387 8.271 31.387 C 12.506 14.387 29.72 4.039 46.719 8.274 C 63.719 12.509 74.067 29.723 69.832 46.722 Z" fill="rgb(244,155,51)" />
      <path d="M 21.794 21.696 L 33.312 21.696 L 33.312 33.213 L 21.794 33.213 Z M 44.817 21.781 L 56.334 21.781 L 56.334 33.299 L 44.817 33.299 Z M 21.794 44.803 L 33.312 44.803 L 33.312 56.32 L 21.794 56.32 L 21.794 44.802 Z M 44.815 44.889 L 56.333 44.889 L 56.333 56.406 L 44.817 56.406 L 44.817 44.889 Z M 33.313 33.335 L 44.83 33.335 L 44.83 44.852 L 33.312 44.852 L 33.312 33.335 Z" fill="rgb(255,255,255)" />
    </g>
  </g>
</svg>
