<svg xmlns="http://www.w3.org/2000/svg" xmlns:xlink="http://www.w3.org/1999/xlink" viewBox="0 0 90 81">
  <g>
    <path d="M 0 41.507 C 0 19.501 17.839 1.662 39.845 1.662 C 61.851 1.662 79.69 19.501 79.69 41.507 C 79.69 63.513 61.851 81.352 39.845 81.352 C 17.839 81.352 0 63.513 0 41.507 Z" fill="rgb(132,71,0)" />
    <path d="M 1.662 40.676 C 1.662 18.67 19.501 0.831 41.507 0.831 C 63.513 0.831 81.352 18.67 81.352 40.676 C 81.352 62.682 63.513 80.521 41.507 80.521 C 19.501 80.521 1.662 62.682 1.662 40.676 Z" fill="rgb(194,108,6)" />
    <g transform="translate(11.577 0)">
      <rect x="0.054" y="0" width="78.094" height="78.093" fill="transparent" />
      <path d="M 76.975 48.503 C 73.666 62.093 63.339 72.875 49.904 76.767 C 36.468 80.658 21.978 77.065 11.917 67.346 C 1.857 57.628 -2.235 43.271 1.189 29.709 C 6.452 8.866 27.574 -3.8 48.439 1.374 C 69.304 6.548 82.06 27.616 76.975 48.503 Z" fill="rgb(244,155,51)" />
      <path d="M 39.095 78.088 C 35.91 78.065 32.739 77.655 29.652 76.867 C 8.791 71.624 -3.898 50.494 1.275 29.616 C 5.1 14.301 17.77 2.797 33.381 0.463 C 48.992 -1.87 64.473 5.426 72.609 18.953 C 77.986 27.909 79.55 38.646 76.95 48.764 C 74.35 58.882 67.803 67.535 58.774 72.789 C 52.799 76.266 46.008 78.095 39.095 78.088 Z M 39.095 7.326 C 24.537 7.337 11.855 17.258 8.339 31.385 C 5.192 42.517 8.355 54.48 16.593 62.601 C 24.831 70.723 36.838 73.715 47.924 70.41 C 59.01 67.106 67.418 58.027 69.864 46.721 C 74.097 29.728 63.759 12.521 46.769 8.278 C 44.259 7.652 41.682 7.333 39.095 7.326 Z" fill="rgb(244,155,51)" opacity="0.24" />
      <path d="M 75.803 25.784 L 0.553 45.305 C -2.665 25.413 9.784 6.34 29.289 1.28 C 48.794 -3.78 68.946 6.836 75.803 25.784 Z" fill="rgb(244,155,51)" opacity="0.3" />
      <path d="M 69.863 46.721 C 65.628 63.72 48.415 74.068 31.415 69.833 C 14.415 65.599 4.067 48.385 8.302 31.385 C 12.537 14.386 29.751 4.038 46.75 8.273 C 63.75 12.507 74.098 29.721 69.863 46.721 Z" fill="rgb(244,155,51)" />
      <path d="M 59.065 29.592 L 56.282 23.981 L 39.166 30.678 L 22.244 23.981 L 19.133 29.592 L 37.226 39.023 L 19.133 48.515 L 21.902 54.127 L 39.031 47.418 L 55.953 54.127 L 59.065 48.516 L 40.97 39.072 L 59.064 29.593 Z" fill="rgb(255,255,255)" />
    </g>
  </g>
</svg>
