<svg
  xmlns="http://www.w3.org/2000/svg"
  xmlns:xlink="http://www.w3.org/1999/xlink"
  viewBox="0 0 90 81"
>
  <g>
    <path
      d="M 0 40.676 C 0 18.67 17.839 0.831 39.845 0.831 C 61.851 0.831 79.69 18.67 79.69 40.676 C 79.69 62.682 61.851 80.521 39.845 80.521 C 17.839 80.521 0 62.682 0 40.676 Z"
      fill="rgb(132,71,0)"
    ></path>
    <path
      d="M 1.662 39.845 C 1.662 17.839 19.501 0 41.507 0 C 63.513 0 81.352 17.839 81.352 39.845 C 81.352 61.851 63.513 79.69 41.507 79.69 C 19.501 79.69 1.662 61.851 1.662 39.845 Z"
      fill="rgb(194,108,6)"
    ></path>
    <g transform="translate(11.581 0)">
      <path
        d="M 0.05 0 L 78.143 0 L 78.143 78.093 L 0.05 78.093 Z"
        fill="transparent"
      ></path>
      <path
        d="M 76.972 48.501 C 73.657 62.086 63.33 72.861 49.898 76.749 C 36.466 80.637 21.981 77.045 11.922 67.331 C 1.863 57.617 -2.232 43.266 1.185 29.706 C 6.44 8.854 27.568 -3.823 48.44 1.353 C 69.313 6.529 82.069 27.609 76.972 48.501 Z"
        fill="rgb(244,155,51)"
      ></path>
      <path
        d="M 39.091 78.088 C 35.905 78.065 32.734 77.655 29.648 76.867 C 8.787 71.624 -3.903 50.494 1.27 29.616 C 5.095 14.301 17.765 2.797 33.376 0.463 C 48.988 -1.87 64.468 5.426 72.604 18.953 C 77.982 27.909 79.545 38.646 76.945 48.764 C 74.345 58.882 67.798 67.535 58.769 72.789 C 52.795 76.266 46.004 78.095 39.091 78.088 Z M 39.091 7.326 C 24.532 7.337 11.851 17.258 8.334 31.385 C 5.188 42.517 8.351 54.48 16.589 62.601 C 24.827 70.723 36.833 73.715 47.919 70.41 C 59.005 67.106 67.413 58.027 69.859 46.721 C 74.092 29.728 63.754 12.521 46.765 8.278 C 44.254 7.652 41.678 7.333 39.091 7.326 Z"
        fill="rgb(244,155,51)"
      ></path>
      <path
        d="M 75.8 25.784 L 0.55 45.305 C -2.668 25.413 9.781 6.34 29.286 1.28 C 48.791 -3.78 68.943 6.836 75.8 25.784 Z"
        fill="rgb(244,155,51)"
      ></path>
      <path
        d="M 69.859 46.721 C 65.624 63.72 48.41 74.068 31.41 69.833 C 14.411 65.599 4.063 48.385 8.298 31.385 C 12.532 14.386 29.746 4.038 46.746 8.273 C 63.745 12.507 74.093 29.721 69.859 46.721 Z"
        fill="rgb(244,155,51)"
      ></path>
      <path
        d="M 36.529 59.397 L 41.531 59.397 L 58.147 25.236 L 55.402 25.236 C 54.034 25.256 52.792 26.037 52.181 27.261 L 39.091 54.15 L 27.451 30.019 L 29.977 30.019 C 30.954 30.019 31.845 30.578 32.271 31.458 L 39.957 47.318 L 42.604 41.999 L 35.846 29.408 C 34.507 26.837 31.863 25.21 28.964 25.174 L 20.009 25.174 Z"
        fill="rgb(255,255,255)"
      ></path>
    </g>
  </g>
</svg>
