<svg xmlns="http://www.w3.org/2000/svg" xmlns:xlink="http://www.w3.org/1999/xlink" viewBox="0 0 90 81">
  <g>
    <path d="M 0 40.676 C 0 18.67 17.839 0.831 39.845 0.831 C 61.851 0.831 79.69 18.67 79.69 40.676 C 79.69 62.682 61.851 80.521 39.845 80.521 C 17.839 80.521 0 62.682 0 40.676 Z" fill="rgb(132,71,0)" />
    <path d="M 1.662 39.845 C 1.662 17.839 19.501 0 41.507 0 C 63.513 0 81.352 17.839 81.352 39.845 C 81.352 61.851 63.513 79.69 41.507 79.69 C 19.501 79.69 1.662 61.851 1.662 39.845 Z" fill="rgb(194,108,6)" />
    <g transform="translate(11.583 0)">
      <rect x="0.048" y="0" width="78.094" height="78.093" fill="transparent" />
      <path d="M 76.972 48.494 C 73.657 62.079 63.33 72.854 49.898 76.742 C 36.466 80.63 21.981 77.038 11.922 67.324 C 1.863 57.611 -2.232 43.259 1.185 29.7 C 6.44 8.847 27.568 -3.83 48.44 1.346 C 69.313 6.522 82.069 27.603 76.972 48.494 Z" fill="rgb(244,155,51)" />
      <path d="M 39.089 78.081 C 35.904 78.058 32.733 77.649 29.646 76.861 C 8.785 71.617 -3.905 50.488 1.268 29.609 C 5.093 14.294 17.763 2.789 33.375 0.455 C 48.986 -1.878 64.467 5.419 72.603 18.946 C 77.98 27.902 79.544 38.64 76.944 48.758 C 74.344 58.876 67.797 67.529 58.768 72.783 C 52.793 76.261 46.002 78.089 39.089 78.082 Z M 39.089 7.32 C 24.531 7.331 11.849 17.251 8.333 31.379 C 4.615 48.166 14.948 64.859 31.632 69.017 C 48.316 73.175 65.275 63.284 69.87 46.715 C 74.103 29.718 63.758 12.508 46.763 8.27 C 44.253 7.645 41.676 7.326 39.089 7.319 Z" fill="rgb(244,155,51)" />
      <path d="M 75.8 25.779 L 0.55 45.311 C -2.667 25.419 9.782 6.347 29.287 1.287 C 48.792 -3.772 68.943 6.843 75.8 25.791 Z" fill="rgb(244,155,51)" />
      <path d="M 69.857 46.727 C 67.151 57.763 58.748 66.509 47.829 69.653 C 36.91 72.798 25.142 69.862 16.981 61.957 C 8.819 54.051 5.509 42.383 8.304 31.369 C 12.602 14.438 29.78 4.167 46.729 8.396 C 63.678 12.625 74.017 29.761 69.857 46.727 Z" fill="rgb(244,155,51)" />
      <path d="M 49.812 21.059 C 48.641 22.215 47.58 23.477 46.641 24.828 L 46.336 24.731 C 44.618 24.161 42.835 23.813 41.029 23.694 L 37.795 23.694 C 35.999 23.79 34.224 24.139 32.525 24.731 L 32.33 24.804 C 31.352 23.465 30.258 22.216 29.06 21.07 C 35.475 17.779 43.071 17.725 49.532 20.924 L 49.813 21.059 Z M 60.573 47.435 C 59.705 49.932 58.386 52.247 56.682 54.267 C 55.754 55.351 54.733 56.351 53.631 57.257 C 51.057 59.328 48.058 60.807 44.847 61.588 C 41.299 62.442 37.598 62.442 34.049 61.588 C 30.839 60.807 27.84 59.328 25.266 57.257 C 24.167 56.351 23.151 55.351 22.228 54.267 C 17.327 48.474 15.852 40.523 18.348 33.357 C 18.825 32.028 19.421 30.746 20.13 29.525 C 20.459 28.964 20.861 28.306 21.057 28.085 C 21.558 30.215 22.156 32.319 22.85 34.394 C 22.826 34.448 22.798 34.502 22.765 34.551 C 21.218 37.59 20.301 40.91 20.068 44.311 L 20.068 44.446 C 19.996 45.156 20.042 45.873 20.203 46.569 C 21.106 49.078 22.722 51.27 24.851 52.877 C 28.975 56.378 34.611 58.916 38.808 59.196 C 43.225 59.501 49.788 56.914 54.083 53.096 C 54.746 52.516 55.373 51.897 55.961 51.242 C 56.338 50.813 56.681 50.356 56.986 49.875 C 57.01 49.819 57.039 49.767 57.071 49.717 C 57.182 49.558 57.596 48.813 57.657 48.692 C 58.018 47.916 58.273 47.095 58.413 46.251 C 58.474 45.848 58.498 45.44 58.487 45.032 C 58.484 44.979 58.484 44.926 58.487 44.874 L 58.487 44.312 C 58.487 44.092 58.487 43.678 58.414 43.349 C 58.174 40.366 57.274 37.473 55.779 34.881 L 55.839 34.161 L 55.839 34.1 C 56.047 33.454 56.937 30.757 57.633 27.658 L 57.742 27.793 C 57.925 28.036 58.401 28.769 58.621 29.111 C 59.598 30.71 60.365 32.428 60.903 34.222 C 62.172 38.54 62.061 43.147 60.585 47.399 Z" fill="rgb(244,155,51)"></path><path d="M 51.545 39.126 C 51.372 39.401 51.143 39.638 50.874 39.821 C 49.515 40.675 47.995 41.24 46.408 41.48 C 45.662 41.666 44.884 41.691 44.127 41.553 C 43.969 41.48 43.969 41.37 43.969 41.126 C 44.235 40.451 44.71 39.879 45.323 39.491 C 45.701 39.223 47.226 38.272 47.933 37.905 C 48.789 37.393 49.719 37.019 50.691 36.795 C 50.864 36.764 51.042 36.764 51.215 36.795 C 51.337 36.795 51.472 37.211 51.532 37.662 C 51.567 38.149 51.571 38.638 51.545 39.126 Z M 35.16 41.479 C 35.16 41.565 34.916 41.65 34.672 41.687 C 34.217 41.728 33.76 41.728 33.305 41.687 C 31.856 41.496 30.445 41.084 29.121 40.467 C 28.59 40.229 28.104 39.903 27.681 39.503 L 27.486 39.308 L 27.486 39.039 C 27.435 38.561 27.435 38.078 27.486 37.6 C 27.521 37.384 27.595 37.178 27.706 36.99 C 27.706 36.917 27.706 36.917 28.01 36.917 C 28.344 36.922 28.674 36.983 28.987 37.099 C 30.266 37.582 31.492 38.196 32.647 38.93 C 33.463 39.328 34.186 39.894 34.77 40.589 C 34.992 40.842 35.117 41.166 35.124 41.503 Z M 45.005 51.166 L 44.822 51.911 C 44.713 52.313 44.639 52.63 44.639 52.642 L 44.188 52.642 L 43.883 53.374 C 43.712 53.765 43.566 54.13 43.541 54.192 L 43.541 54.289 L 43.395 54.058 L 43.249 53.814 L 43.249 51.837 L 43.188 51.837 C 43.066 51.837 42.224 51.984 41.858 52.02 C 40.339 52.171 38.807 52.138 37.295 51.923 L 36.831 51.923 L 36.831 53.911 L 36.71 54.094 L 36.587 54.277 C 36.587 54.277 36.502 54.192 36.331 53.875 C 36.165 53.535 36.034 53.18 35.94 52.814 L 35.94 52.618 L 35.429 52.618 L 35.429 52.362 C 35.429 52.215 35.429 52.057 35.343 51.898 L 35.343 51.666 L 35.16 51.508 L 34.903 51.239 C 34.888 51.204 34.888 51.164 34.903 51.13 L 34.903 51.044 L 36.648 51.044 L 36.648 51.239 L 38.991 51.239 L 39.21 50.898 L 39.443 50.544 L 39.735 50.544 L 39.735 49.215 L 39.356 49.044 C 38.382 48.742 37.577 48.048 37.137 47.128 C 37.075 46.982 37.075 46.92 37.063 46.226 C 37.012 45.927 37.012 45.621 37.063 45.322 C 37.166 44.979 37.438 44.712 37.783 44.615 C 38.473 44.569 39.166 44.569 39.857 44.615 L 41.796 44.615 L 42.004 44.713 C 42.212 44.802 42.393 44.945 42.529 45.127 C 42.707 45.36 42.787 45.654 42.749 45.945 C 42.762 46.395 42.725 46.845 42.639 47.286 C 42.547 47.57 42.411 47.838 42.236 48.08 C 41.822 48.577 41.283 48.956 40.674 49.177 L 40.516 49.239 L 40.516 50.703 L 40.821 50.703 L 41.029 51.007 L 41.223 51.325 L 43.176 51.325 C 43.236 51.325 43.249 51.325 43.322 51.215 L 43.407 51.093 L 44.2 51.093 C 44.46 51.066 44.721 51.066 44.981 51.093 L 45.006 51.166 Z" fill="rgb(244,155,51)"></path><path d="M 41.333 53.107 C 41.198 53.18 41.114 53.217 41.089 53.204 L 40.869 53.033 L 40.687 52.887 L 40.491 53.094 C 40.064 53.558 40.052 53.57 39.93 53.582 C 39.808 53.595 39.685 53.582 39.454 53.217 L 39.234 52.875 L 38.893 52.875 L 38.796 53.058 L 38.71 53.253 L 38.551 53.253 L 38.173 53.107 L 37.868 52.912 L 37.868 52.521 L 41.528 52.521 L 41.528 52.704 C 41.528 52.923 41.528 52.923 41.236 53.094 Z" fill="rgb(244,155,51)"></path><path d="M 58.718 44.629 C 58.723 44.576 58.723 44.523 58.718 44.471 C 54.796 44.099 50.888 45.307 47.86 47.826 C 47.86 47.826 46.408 41.286 39.747 41.286 C 33.086 41.286 30.549 47.825 30.549 47.825 C 27.81 45.012 23.868 43.718 19.995 44.36 L 19.995 44.494 C 19.916 45.204 19.962 45.923 20.129 46.618 C 21.033 49.127 22.648 51.319 24.777 52.925 C 28.901 56.427 34.537 58.965 38.734 59.245 C 43.151 59.55 49.715 56.963 54.009 53.144 C 54.696 52.548 55.348 51.913 55.961 51.242 C 56.338 50.813 56.68 50.356 56.986 49.875 C 57.01 49.819 57.038 49.767 57.071 49.716 C 57.181 49.558 57.596 48.813 57.657 48.691 C 58.017 47.916 58.272 47.095 58.413 46.251 C 58.582 45.725 58.685 45.18 58.719 44.629 Z M 41.333 53.169 C 41.199 53.242 41.114 53.279 41.089 53.266 C 41.008 53.22 40.935 53.162 40.869 53.096 L 40.674 52.949 L 40.479 53.157 C 40.063 53.62 40.052 53.633 39.918 53.644 C 39.783 53.657 39.685 53.644 39.454 53.279 C 39.222 52.913 39.222 52.937 39.222 52.937 L 38.893 52.937 L 38.807 53.12 L 38.723 53.315 L 38.564 53.315 L 38.185 53.168 L 37.869 52.912 L 37.869 52.521 L 41.528 52.521 L 41.528 52.704 C 41.638 52.937 41.638 52.937 41.333 53.107 L 41.333 53.168 Z M 44.81 51.949 L 44.627 52.681 L 44.176 52.681 L 43.883 53.413 C 43.712 53.803 43.566 54.169 43.542 54.23 L 43.542 54.328 L 43.395 54.096 L 43.249 53.852 L 43.249 51.839 C 42.809 51.912 42.358 51.974 41.919 52.022 C 40.396 52.173 38.859 52.14 37.343 51.925 L 36.892 51.925 L 36.892 53.914 L 36.77 54.096 L 36.648 54.279 C 36.648 54.279 36.551 54.194 36.392 53.876 C 36.221 53.539 36.09 53.183 36.002 52.815 L 36.002 52.62 L 35.429 52.62 L 35.429 52.339 L 35.355 51.876 L 35.355 51.644 L 35.184 51.486 L 34.903 51.241 C 34.888 51.206 34.888 51.166 34.903 51.131 L 34.903 51.046 L 36.648 51.046 L 36.648 51.241 L 39.027 51.241 L 39.259 50.9 L 39.479 50.546 L 39.771 50.546 L 39.771 49.216 L 39.393 49.045 C 38.419 48.738 37.613 48.046 37.161 47.129 C 37.094 46.834 37.074 46.529 37.099 46.227 C 37.049 45.928 37.049 45.623 37.099 45.324 C 37.199 44.978 37.472 44.71 37.82 44.616 C 38.51 44.571 39.203 44.571 39.893 44.616 L 41.821 44.616 L 42.041 44.714 C 42.248 44.805 42.43 44.947 42.565 45.13 C 42.729 45.368 42.803 45.658 42.773 45.946 C 42.787 46.396 42.755 46.846 42.675 47.288 C 42.578 47.571 42.443 47.836 42.273 48.081 C 41.854 48.575 41.317 48.953 40.711 49.18 L 40.54 49.24 L 40.54 50.704 L 40.845 50.704 L 41.053 51.022 L 41.247 51.327 L 43.187 51.327 C 43.26 51.327 43.273 51.327 43.346 51.217 L 43.431 51.095 L 44.225 51.095 C 44.492 51.062 44.762 51.062 45.03 51.095 C 44.94 51.33 44.867 51.57 44.81 51.815 Z" fill="rgb(255,255,255)"></path><path d="M 58.666 43.921 L 58.666 42.957 C 58.415 39.977 57.516 37.087 56.031 34.49 C 55.974 34.395 55.921 34.297 55.872 34.197 C 55.869 34.177 55.869 34.156 55.872 34.136 C 56.574 32.018 57.176 29.868 57.678 27.694 C 58.63 23.498 59.227 18.58 57.385 17.105 C 57.385 17.105 54.177 16.872 49.894 21.069 C 48.73 22.232 47.669 23.494 46.722 24.84 L 46.405 24.73 C 44.683 24.16 42.895 23.812 41.085 23.693 L 37.865 23.693 C 36.068 23.789 34.294 24.138 32.595 24.73 L 32.399 24.803 C 31.422 23.464 30.328 22.215 29.13 21.069 C 24.603 16.849 21.284 17.08 21.284 17.08 C 19.321 18.593 19.992 23.73 21.004 28.06 C 21.516 30.186 22.114 32.291 22.797 34.368 C 22.778 34.423 22.754 34.476 22.724 34.526 C 21.174 37.564 20.253 40.884 20.016 44.286 C 23.893 43.676 27.824 44.997 30.545 47.825 C 30.545 47.825 32.984 41.286 39.707 41.286 C 46.43 41.286 47.808 47.825 47.808 47.825 C 50.839 45.309 54.745 44.103 58.666 44.47 Z M 24.115 31.721 C 24.115 31.721 21.516 25.218 22.188 21.509 C 22.267 20.931 22.489 20.381 22.834 19.911 C 22.834 19.911 25.786 20.204 30.533 25.486 C 29.788 25.878 29.081 26.34 28.423 26.865 C 26.686 28.196 25.227 29.854 24.127 31.745 L 24.115 31.72 Z M 35.156 41.481 C 35.022 41.604 34.85 41.677 34.668 41.689 C 34.214 41.729 33.756 41.729 33.302 41.689 C 31.854 41.492 30.444 41.08 29.117 40.467 C 28.588 40.221 28.102 39.892 27.677 39.492 L 27.483 39.297 L 27.483 39.028 C 27.437 38.55 27.437 38.068 27.483 37.589 C 27.519 37.376 27.589 37.17 27.691 36.979 C 27.691 36.906 27.691 36.906 27.995 36.906 C 28.332 36.91 28.667 36.972 28.983 37.089 C 30.264 37.569 31.491 38.182 32.643 38.919 C 33.464 39.315 34.191 39.88 34.778 40.578 C 35.001 40.831 35.126 41.156 35.132 41.493 L 35.157 41.481 Z M 51.542 39.175 C 51.368 39.45 51.14 39.687 50.87 39.87 C 49.508 40.707 47.988 41.255 46.405 41.481 C 45.657 41.66 44.881 41.685 44.123 41.554 C 43.966 41.481 43.966 41.371 43.966 41.127 C 44.232 40.452 44.706 39.879 45.32 39.492 C 45.698 39.224 47.222 38.272 47.93 37.906 C 48.785 37.394 49.716 37.019 50.687 36.796 C 50.861 36.765 51.038 36.765 51.212 36.796 C 51.334 36.796 51.468 37.211 51.529 37.662 C 51.564 38.149 51.568 38.638 51.542 39.126 L 51.542 39.176 Z M 50.321 26.975 C 49.687 26.455 49.005 25.998 48.284 25.608 C 52.883 20.313 55.726 20.02 55.726 20.02 C 56.049 20.5 56.261 21.046 56.348 21.619 C 56.995 25.279 54.482 31.842 54.482 31.842 C 53.457 29.943 52.064 28.267 50.383 26.914 Z" fill="rgb(255,255,255)"></path><path d="M 56.412 21.545 C 55.862 21.472 53.3 21.46 50.384 26.913 C 49.748 26.397 49.066 25.939 48.347 25.547 C 52.946 20.252 55.789 19.971 55.789 19.971 C 56.118 20.445 56.335 20.987 56.423 21.558 Z" fill="rgb(255,147,0)"></path><path d="M 54.546 31.72 C 53.498 29.836 52.089 28.178 50.398 26.84 C 53.302 21.387 55.863 21.398 56.413 21.472 C 57.06 25.193 54.546 31.696 54.546 31.696 L 54.546 31.721 Z" fill="rgb(244,155,51)"></path><path d="M 30.552 25.537 C 29.807 25.927 29.101 26.384 28.441 26.902 C 25.428 21.449 22.78 21.461 22.207 21.535 C 22.288 20.961 22.51 20.415 22.853 19.948 C 22.853 19.948 25.818 20.229 30.563 25.524 L 30.552 25.536 Z" fill="rgb(255,147,0)"></path><path d="M 28.425 26.913 C 26.682 28.24 25.218 29.899 24.118 31.793 C 24.118 31.793 21.52 25.291 22.191 21.57 C 22.752 21.496 25.412 21.484 28.425 26.937 Z" fill="rgb(244,155,51)"></path><path d="M 47.505 35.381 C 47.505 35.381 45.284 35.514 45.552 33.782 C 45.764 32.591 46.864 31.768 48.066 31.904 C 48.554 31.977 50.506 32.672 50.152 34.124 C 49.799 35.576 49.31 35.345 49.03 35.345 C 48.522 35.381 48.012 35.381 47.505 35.345 L 47.505 35.38 Z M 31.084 35.381 C 31.084 35.381 28.863 35.514 29.144 33.782 C 29.348 32.619 30.407 31.804 31.584 31.904 C 32.071 31.977 34.024 32.672 33.669 34.124 C 33.316 35.576 32.84 35.345 32.56 35.345 C 32.069 35.391 31.576 35.403 31.084 35.38 Z" fill="rgb(255,255,255)"></path>
    </g>
  </g>
</svg>
