<svg
  xmlns="http://www.w3.org/2000/svg"
  xmlns:xlink="http://www.w3.org/1999/xlink"
  viewBox="0 0 90 81"
>
  <g>
    <path
      d="M 0 41.507 C 0 19.501 17.839 1.662 39.845 1.662 C 61.851 1.662 79.69 19.501 79.69 41.507 C 79.69 63.513 61.851 81.352 39.845 81.352 C 17.839 81.352 0 63.513 0 41.507 Z"
      fill="rgb(132,71,0)"
    ></path>
    <path
      d="M 1.662 40.676 C 1.662 18.67 19.501 0.831 41.507 0.831 C 63.513 0.831 81.352 18.67 81.352 40.676 C 81.352 62.682 63.513 80.521 41.507 80.521 C 19.501 80.521 1.662 62.682 1.662 40.676 Z"
      fill="rgb(194,108,6)"
    ></path>
    <g transform="translate(11.594 0)">
      <path
        d="M 0.037 0 L 78.131 0 L 78.131 78.093 L 0.037 78.093 Z"
        fill="transparent"
      ></path>
      <path
        d="M 76.961 48.501 C 73.635 62.074 63.309 72.834 49.885 76.715 C 36.46 80.596 21.985 77.006 11.93 67.302 C 1.875 57.597 -2.226 43.259 1.175 29.705 C 6.427 8.85 27.557 -3.83 48.432 1.346 C 69.306 6.523 82.063 27.607 76.961 48.5 Z"
        fill="rgb(244,155,51)"
      ></path>
      <path
        d="M 39.078 78.087 C 35.893 78.065 32.722 77.655 29.636 76.867 C 8.775 71.624 -3.915 50.494 1.258 29.616 C 5.082 14.301 17.752 2.796 33.364 0.462 C 48.976 -1.872 64.456 5.425 72.592 18.953 C 77.969 27.909 79.533 38.647 76.933 48.764 C 74.333 58.882 67.786 67.536 58.757 72.79 C 52.782 76.267 45.991 78.095 39.078 78.088 Z M 39.078 7.326 C 24.52 7.337 11.838 17.258 8.322 31.385 C 5.174 42.518 8.337 54.481 16.575 62.603 C 24.814 70.726 36.821 73.718 47.908 70.413 C 58.994 67.107 67.402 58.028 69.847 46.72 C 74.079 29.728 63.741 12.521 46.752 8.278 C 44.242 7.652 41.665 7.333 39.078 7.326 Z"
        fill="rgb(244,155,51)"
      ></path>
      <path
        d="M 75.79 25.784 L 0.539 45.305 C -2.679 25.413 9.771 6.34 29.276 1.28 C 48.781 -3.78 68.932 6.836 75.79 25.784 Z"
        fill="rgb(244,155,51)"
      ></path>
      <path
        d="M 69.85 46.722 C 65.615 63.722 48.401 74.07 31.401 69.835 C 14.401 65.6 4.054 48.386 8.289 31.386 C 12.524 14.387 29.738 4.039 46.737 8.274 C 63.737 12.509 74.084 29.723 69.85 46.722 Z"
        fill="rgb(244,155,51)"
      ></path>
      <path
        d="M 28.953 19.964 L 39.931 32.884 L 47.325 28.517 C 47.325 28.517 38.394 16.596 36.028 17.439 L 28.953 19.965 Z M 47.619 28.504 C 48.79 26.318 49.645 23.977 50.157 21.55 C 50.157 21.55 58.513 24.905 55.317 33.335 Z M 55.305 33.446 L 56 42.303 L 59.209 41.863 C 59.209 41.863 60.039 41.583 59.904 40.058 C 59.77 38.532 59.477 34.86 59.477 34.86 C 59.477 34.86 59.612 34.019 57.659 33.738 C 55.305 33.287 55.305 33.446 55.305 33.446 Z"
        fill="rgb(255,255,255)"
      ></path>
      <path
        d="M 56 42.28 L 49.583 47.478 L 52.511 53.212 C 52.511 53.212 53.206 55.529 55.293 52.931 C 57.378 50.332 58.086 49.978 57.939 48.453 C 57.793 46.928 57.379 43.256 56 42.28 Z M 49.424 47.453 L 40.653 43.525 L 32.905 59.104 C 32.905 59.104 32.331 60.227 34.309 60.324 C 36.284 60.422 39.469 61.325 41.128 59.629 C 44.115 55.726 46.885 51.661 49.424 47.453 Z M 40.653 43.391 L 39.896 33.02 L 20.925 34.314 C 20.925 34.314 19.814 34.448 19.949 36.632 C 20.095 39.45 20.376 42.537 20.376 42.537 C 20.376 42.537 20.241 43.756 22.694 43.952 C 25.146 44.147 40.383 43.927 40.653 43.39 Z"
        fill="rgb(255,255,255)"
      ></path>
    </g>
  </g>
</svg>
