<svg xmlns="http://www.w3.org/2000/svg" viewBox="0 0 90 81" width="90" height="81">
  <path d="M 0 40.741 C 0 18.735 17.839 0.896 39.845 0.896 C 61.851 0.896 79.69 18.735 79.69 40.741 C 79.69 62.747 61.851 80.586 39.845 80.586 C 17.839 80.586 0 62.747 0 40.741 Z"
        fill="rgb(132,71,0)"/>
  <path d="M 1.791 39.845 C 1.791 17.839 19.631 0 41.637 0 C 63.643 0 81.482 17.839 81.482 39.845 C 81.482 61.851 63.643 79.69 41.637 79.69 C 19.631 79.69 1.791 61.851 1.791 39.845 Z"
        fill="rgb(194,108,6)"/>
  <path d="M 11.248 39.048 C 11.248 17.483 28.73 0.002 50.295 0.002 C 71.86 0.002 89.342 17.483 89.342 39.048 C 89.342 60.613 71.86 78.095 50.295 78.095 C 28.73 78.095 11.248 60.613 11.248 39.048 Z"
        fill="rgb(244,155,51)"/>
  <path d="M 66.245 31.779 C 65.822 26.378 61.188 24.484 55.323 23.865 L 55.455 16.379 L 50.904 16.306 L 50.769 23.593 C 49.571 23.566 48.348 23.577 47.126 23.577 L 47.26 16.239 L 42.707 16.158 L 42.572 23.644 C 41.592 23.644 40.617 23.65 39.675 23.625 L 39.675 23.599 L 33.387 23.493 L 33.306 28.359 C 33.306 28.359 36.675 28.351 36.618 28.419 C 38.46 28.451 39.047 29.534 39.203 30.457 L 39.055 38.986 C 39.179 38.986 39.343 38.994 39.534 39.026 L 39.055 39.018 L 38.848 50.964 C 38.756 51.542 38.401 52.461 37.106 52.445 C 37.162 52.493 33.793 52.385 33.793 52.385 L 32.792 57.806 L 38.724 57.914 C 39.823 57.938 40.913 57.97 41.98 57.995 L 41.845 65.562 L 46.399 65.637 L 46.533 58.151 C 47.78 58.194 48.995 58.226 50.174 58.25 L 50.042 65.704 L 54.593 65.777 L 54.728 58.226 C 62.394 57.922 67.788 56.088 68.583 48.898 C 69.218 43.116 66.541 40.48 62.214 39.365 C 64.874 38.075 66.568 35.738 66.245 31.779 Z
        M 59.586 47.856 C 59.494 53.516 49.811 52.7 46.722 52.649 L 46.902 42.621 C 49.994 42.669 59.693 41.948 59.586 47.856 Z
        M 57.72 33.664 C 57.628 38.811 49.555 38.067 46.986 38.027 L 47.142 28.93 C 49.714 28.971 57.808 28.295 57.72 33.664 Z"
        fill="rgb(255,255,255)"/>
</svg>
