<svg
  xmlns="http://www.w3.org/2000/svg"
  xmlns:xlink="http://www.w3.org/1999/xlink"
  viewBox="0 0 90 81"
>
  <g>
    <path
      d="M 0 41.507 C 0 19.501 17.839 1.662 39.845 1.662 C 61.851 1.662 79.69 19.501 79.69 41.507 C 79.69 63.513 61.851 81.352 39.845 81.352 C 17.839 81.352 0 63.513 0 41.507 Z"
      fill="rgb(132,71,0)"
    ></path>
    <path
      d="M 1.662 40.676 C 1.662 18.67 19.501 0.831 41.507 0.831 C 63.513 0.831 81.352 18.67 81.352 40.676 C 81.352 62.682 63.513 80.521 41.507 80.521 C 19.501 80.521 1.662 62.682 1.662 40.676 Z"
      fill="rgb(194,108,6)"
    ></path>
    <g transform="translate(11.594 0)">
      <path
        d="M 0.037 0 L 78.131 0 L 78.131 78.093 L 0.037 78.093 Z"
        fill="transparent"
      ></path>
      <path
        d="M 76.961 48.503 C 73.635 62.075 63.309 72.835 49.885 76.716 C 36.46 80.597 21.985 77.007 11.93 67.303 C 1.875 57.599 -2.226 43.261 1.175 29.707 C 6.427 8.851 27.557 -3.829 48.432 1.348 C 69.306 6.525 82.063 27.609 76.961 48.502 Z"
        fill="rgb(244,155,51)"
      ></path>
      <path
        d="M 39.078 78.088 C 35.893 78.065 32.722 77.655 29.636 76.867 C 8.774 71.624 -3.915 50.494 1.258 29.616 C 5.083 14.301 17.753 2.797 33.364 0.463 C 48.975 -1.87 64.456 5.426 72.592 18.953 C 77.969 27.909 79.533 38.646 76.933 48.764 C 74.333 58.882 67.786 67.535 58.757 72.789 C 52.782 76.266 45.991 78.095 39.078 78.088 Z M 39.078 7.326 C 24.52 7.337 11.838 17.258 8.322 31.385 C 5.175 42.517 8.338 54.48 16.576 62.601 C 24.815 70.723 36.821 73.715 47.907 70.41 C 58.993 67.106 67.401 58.027 69.847 46.721 C 74.08 29.728 63.742 12.521 46.752 8.278 C 44.242 7.652 41.665 7.333 39.078 7.326 Z"
        fill="rgb(244,155,51)"
      ></path>
      <path
        d="M 75.79 25.786 L 0.539 45.307 C -2.679 25.415 9.771 6.342 29.276 1.282 C 48.781 -3.778 68.932 6.838 75.79 25.786 Z"
        fill="rgb(244,155,51)"
      ></path>
      <path
        d="M 69.846 46.721 C 65.611 63.72 48.398 74.068 31.398 69.833 C 14.398 65.599 4.051 48.385 8.285 31.385 C 12.52 14.386 29.734 4.038 46.733 8.273 C 63.733 12.507 74.081 29.721 69.846 46.721 Z"
        fill="rgb(244,155,51)"
      ></path>
      <path
        d="M 39.003 26.2 C 43.423 26.2 47.007 24.091 47.007 21.491 C 47.007 18.889 43.423 16.781 39.003 16.781 C 34.584 16.781 31 18.89 31 21.491 C 31 24.091 34.584 26.2 39.003 26.2 Z M 39.003 61.312 C 43.423 61.312 47.007 59.203 47.007 56.602 C 47.007 54.002 43.423 51.893 39.003 51.893 C 34.584 51.893 31 54.002 31 56.602 C 31 59.203 34.584 61.312 39.003 61.312 Z M 27.804 54.758 C 30.055 53.458 30.09 49.3 27.88 45.473 C 25.67 41.645 22.052 39.596 19.8 40.896 C 17.548 42.197 17.513 46.354 19.723 50.182 C 21.933 54.01 25.551 56.059 27.804 54.758 Z M 58.201 37.201 C 60.454 35.9 60.488 31.743 58.278 27.914 C 56.068 24.087 52.45 22.037 50.198 23.338 C 47.946 24.638 47.911 28.796 50.121 32.624 C 52.331 36.451 55.949 38.5 58.201 37.2 Z M 58.43 50.003 C 60.638 46.158 60.595 41.989 58.333 40.69 C 56.072 39.392 52.45 41.455 50.241 45.3 C 48.033 49.145 48.076 53.314 50.337 54.613 C 52.598 55.912 56.221 53.847 58.43 50.002 Z M 27.87 32.636 C 30.08 28.807 30.046 24.65 27.794 23.35 C 25.541 22.049 21.923 24.098 19.713 27.926 C 17.504 31.754 17.538 35.911 19.79 37.212 C 22.042 38.513 25.66 36.464 27.87 32.636 Z"
        fill="rgb(255,255,255)"
      ></path>
    </g>
  </g>
</svg>
