<svg xmlns="http://www.w3.org/2000/svg" xmlns:xlink="http://www.w3.org/1999/xlink" viewBox="0 0 90 81"><g><path d="M 0 41.507 C 0 19.501 17.839 1.662 39.845 1.662 C 61.851 1.662 79.69 19.501 79.69 41.507 C 79.69 63.513 61.851 81.352 39.845 81.352 C 17.839 81.352 0 63.513 0 41.507 Z" fill="rgb(132,71,0)"></path><path d="M 1.662 40.676 C 1.662 18.67 19.501 0.831 41.507 0.831 C 63.513 0.831 81.352 18.67 81.352 40.676 C 81.352 62.682 63.513 80.521 41.507 80.521 C 19.501 80.521 1.662 62.682 1.662 40.676 Z" fill="rgb(194,108,6)"></path><g transform="translate(11.611 0)"><path d="M 0.02 0 L 78.113 0 L 78.113 78.093 L 0.02 78.093 Z" fill="transparent"></path><path d="M 76.943 48.501 C 71.753 69.429 50.581 82.187 29.653 76.997 C 8.725 71.807 -4.033 50.634 1.157 29.706 C 6.347 8.778 27.52 -3.98 48.448 1.21 C 69.375 6.4 82.133 27.573 76.943 48.501 Z" fill="rgb(244,155,51)"></path><path d="M 39.059 78.088 C 35.874 78.065 32.703 77.655 29.616 76.867 C 8.755 71.624 -3.935 50.494 1.238 29.616 C 5.062 14.3 17.732 2.794 33.344 0.461 C 48.957 -1.873 64.438 5.425 72.573 18.953 C 77.95 27.909 79.514 38.646 76.914 48.764 C 74.314 58.882 67.767 67.535 58.738 72.789 C 52.763 76.266 45.972 78.095 39.059 78.088 Z M 39.059 7.326 C 24.5 7.337 11.819 17.258 8.303 31.385 C 5.134 42.525 8.288 54.505 16.531 62.641 C 24.774 70.776 36.795 73.772 47.892 70.457 C 58.989 67.143 67.397 58.044 69.828 46.721 C 74.06 29.728 63.723 12.521 46.733 8.278 C 44.223 7.652 41.646 7.333 39.059 7.326 Z" fill="rgb(244,155,51)"></path><path d="M 75.77 25.784 L 0.52 45.305 C -2.698 25.413 9.751 6.34 29.257 1.28 C 48.762 -3.78 68.913 6.836 75.77 25.784 Z" fill="rgb(244,155,51)"></path><path d="M 69.83 46.721 C 65.596 63.72 48.382 74.067 31.383 69.833 C 14.384 65.598 4.036 48.384 8.271 31.385 C 12.506 14.386 29.72 4.039 46.719 8.274 C 63.718 12.509 74.065 29.722 69.83 46.721 Z" fill="rgb(244,155,51)"></path><path d="M 55.811 24.614 L 55.811 35.693 L 44.611 35.693 L 44.611 58.092 L 33.52 58.092 L 33.52 35.254 C 33.52 29.382 38.276 24.62 44.148 24.614 L 55.812 24.614 Z M 33.521 24.614 C 33.525 27.554 32.358 30.374 30.28 32.452 C 28.202 34.531 25.382 35.697 22.443 35.694 L 22.32 35.694 L 22.32 24.615 L 33.519 24.615 Z" fill="rgb(255,255,255)"></path></g></g></svg>