<svg
  xmlns="http://www.w3.org/2000/svg"
  xmlns:xlink="http://www.w3.org/1999/xlink"
  viewBox="0 0 90 81"
>
  <g>
    <path
      d="M 0 40.676 C 0 18.67 17.839 0.831 39.845 0.831 C 61.851 0.831 79.69 18.67 79.69 40.676 C 79.69 62.682 61.851 80.521 39.845 80.521 C 17.839 80.521 0 62.682 0 40.676 Z"
      fill="rgb(132,71,0)"
    ></path>
    <path
      d="M 1.662 39.845 C 1.662 17.839 19.501 0 41.507 0 C 63.513 0 81.352 17.839 81.352 39.845 C 81.352 61.851 63.513 79.69 41.507 79.69 C 19.501 79.69 1.662 61.851 1.662 39.845 Z"
      fill="rgb(194,108,6)"
    ></path>
    <g transform="translate(11.194 0)">
      <path
        d="M 0.021 0 L 78.115 0 L 78.115 78.093 L 0.021 78.093 Z"
        fill="transparent"
      ></path>
      <path
        d="M 76.944 48.503 C 71.753 69.431 50.58 82.188 29.653 76.998 C 8.725 71.808 -4.033 50.635 1.157 29.707 C 6.347 8.779 27.52 -3.979 48.448 1.211 C 69.376 6.401 82.134 27.574 76.944 48.502 Z"
        fill="rgb(244,155,51)"
      ></path>
      <path
        d="M 39.062 78.088 C 35.877 78.065 32.706 77.655 29.62 76.867 C 8.759 71.624 -3.931 50.494 1.242 29.616 C 5.067 14.301 17.737 2.797 33.348 0.463 C 48.96 -1.87 64.44 5.426 72.576 18.953 C 77.954 27.909 79.517 38.646 76.917 48.764 C 74.317 58.882 67.77 67.535 58.741 72.789 C 52.766 76.266 45.975 78.095 39.062 78.088 Z M 39.062 7.326 C 24.504 7.337 11.822 17.258 8.306 31.385 C 5.159 42.517 8.323 54.48 16.561 62.601 C 24.799 70.723 36.805 73.715 47.891 70.41 C 58.977 67.106 67.385 58.027 69.831 46.721 C 74.064 29.728 63.726 12.521 46.736 8.278 C 44.226 7.652 41.649 7.333 39.062 7.326 Z"
        fill="rgb(244,155,51)"
      ></path>
      <path
        d="M 75.772 25.786 L 0.522 45.307 C -2.701 25.412 9.748 6.335 29.256 1.274 C 48.764 -3.787 68.918 6.834 75.772 25.786 Z"
        fill="rgb(244,155,51)"
      ></path>
      <path
        d="M 69.83 46.721 C 65.596 63.72 48.382 74.068 31.382 69.833 C 14.383 65.599 4.035 48.385 8.269 31.385 C 12.504 14.386 29.718 4.038 46.718 8.273 C 63.717 12.507 74.065 29.721 69.83 46.721 Z"
        fill="rgb(244,155,51)"
      ></path>
      <path
        d="M 53.005 56.822 L 45.685 45.391 L 56.141 45.391 L 56.141 41.084 L 21.981 41.084 L 21.981 45.391 L 32.411 45.391 L 25.092 56.822 L 30.593 56.822 L 39.048 43.402 L 47.589 56.822 Z M 56.141 36.875 L 56.141 32.568 L 45.941 32.568 L 53.14 21.271 L 47.6 21.271 L 39.06 35.009 L 30.397 21.285 L 24.908 21.285 L 32.094 32.569 L 21.981 32.569 L 21.981 36.937 L 56.141 36.937 L 56.141 36.876 Z"
        fill="rgb(255,255,255)"
      ></path>
    </g>
  </g>
</svg>
