<svg xmlns="http://www.w3.org/2000/svg" width="92" height="30" fill="none"><g clip-path="url(#a)"><g clip-path="url(#b)"><g clip-path="url(#c)"><mask id="d" width="58" height="24" x="17" y="3" maskUnits="userSpaceOnUse" style="mask-type:luminance"><path fill="#fff" d="M17.36 3.5h57.282v23H17.36v-23Z"/></mask><g mask="url(#d)"><path fill="#BDBDBD" d="M20.092 5.935c.148-.71.853-1.285 1.57-1.285h3.903L22.32 20.073h-3.902c-.718 0-1.18-.575-1.03-1.285l2.704-12.853Zm13.007 0c.149-.71.853-1.285 1.57-1.285h3.903l-3.245 15.423h-3.902c-.719 0-1.18-.575-1.03-1.285l2.704-12.853Zm26.015 0c.149-.71.852-1.285 1.57-1.285h3.903l-3.245 15.423h-3.903c-.718 0-1.18-.575-1.03-1.285l2.705-12.853ZM39.873 4.65h3.902c.718 0 1.18.575 1.03 1.285l-2.704 12.854c-.149.71-.853 1.285-1.57 1.285h-3.903L39.873 4.65Zm26.015 0h3.902c.718 0 1.18.575 1.03 1.285l-2.704 12.853c-.15.71-.853 1.285-1.57 1.285h-3.904L65.888 4.65ZM46.106 5.935c.15-.71.853-1.285 1.571-1.285h3.903l-3.246 15.423h-3.902c-.718 0-1.18-.575-1.03-1.285l2.704-12.853ZM52.88 4.65h3.903c.718 0 1.18.575 1.03 1.285l-4.056 19.28c-.15.71-.854 1.285-1.573 1.285h-3.902L52.88 4.65ZM24.702 14.932h5.203l-.812 3.856c-.149.71-.853 1.285-1.57 1.285H23.62l1.081-5.14Zm18.16 6.427h5.201l-1.08 5.141H43.08c-.72 0-1.18-.575-1.03-1.285l.81-3.856h.001Zm14.122 1.195-.66 3.132c-.028.134-.073.171-.209.171h-.3c-.136 0-.165-.037-.137-.171l.659-3.132c.028-.134.073-.171.21-.171h.299c.136 0 .166.037.138.171Zm.866 2.113h-.062c-.065 0-.088.018-.101.083l-.197.936c-.029.134-.074.171-.21.171h-.3c-.136 0-.166-.037-.137-.171l.658-3.132c.029-.134.075-.171.21-.171h.62c.712 0 .982.255.85.88l-.11.523c-.132.626-.509.88-1.221.88Zm.18-1.552-.171.82c-.014.065 0 .083.066.083h.099c.229 0 .352-.092.402-.329l.069-.329c.05-.235-.034-.328-.264-.328h-.098c-.065 0-.089.018-.102.083Zm2.142.505.487.537c.255.278.29.445.226.756l-.018.083c-.123.584-.416.908-1.096.908-.68 0-.847-.274-.69-1.02l.019-.092c.029-.134.074-.172.21-.172h.318c.136 0 .166.038.138.171l-.043.204c-.04.186.02.26.184.26.165 0 .254-.069.29-.236l.018-.088c.027-.13.012-.195-.129-.347l-.458-.496c-.256-.273-.289-.431-.224-.742l.021-.101c.124-.584.417-.908 1.096-.908.68 0 .848.273.691 1.019l-.02.092c-.028.135-.073.172-.209.172h-.319c-.136 0-.166-.037-.138-.172l.043-.203c.04-.186-.02-.26-.184-.26s-.254.07-.289.236l-.016.079c-.03.134-.014.2.092.32Zm2.745-1.066c.028-.134.073-.171.21-.171h.3c.135 0 .165.037.137.171l-.49 2.33c-.158.747-.44 1.02-1.12 1.02-.68 0-.847-.274-.69-1.02l.49-2.33c.029-.134.074-.171.21-.171h.3c.135 0 .165.037.137.171l-.514 2.442c-.038.185.026.259.204.259.173 0 .273-.074.312-.26l.514-2.44Zm1.95 1.886c.002.037.015.045.038.045s.04-.008.057-.045l.81-1.936c.04-.098.087-.121.204-.121h.454c.136 0 .166.037.138.171l-.659 3.132c-.028.134-.074.171-.21.171h-.215c-.136 0-.167-.037-.138-.171l.316-1.5c.01-.042.002-.052-.027-.052-.018 0-.04.01-.051.042l-.654 1.529c-.047.11-.107.152-.243.152h-.127c-.141 0-.183-.041-.183-.152l-.016-1.53c-.004-.032-.01-.041-.034-.041-.029 0-.04.01-.049.051l-.315 1.5c-.029.135-.073.172-.21.172h-.215c-.137 0-.166-.037-.138-.171l.659-3.132c.029-.134.074-.171.21-.171h.39c.163 0 .216.037.214.2l-.006 1.857Zm9.775-19.79c0 .635-.51 1.15-1.138 1.15a1.139 1.139 0 0 1-1.054-.711 1.142 1.142 0 0 1-.085-.439c0-.635.51-1.15 1.139-1.15.628 0 1.138.515 1.138 1.15Z"/></g></g></g></g><defs><clipPath id="a"><path fill="#fff" d="M0 3.5h92v23H0z"/></clipPath><clipPath id="b"><path fill="#fff" d="M0 3.5h92v23H0z"/></clipPath><clipPath id="c"><path fill="#fff" d="M17.36 3.5h57.282v23H17.36z"/></clipPath></defs></svg>