<svg xmlns="http://www.w3.org/2000/svg" width="92" height="30" fill="none"><g clip-path="url(#a)"><g clip-path="url(#b)"><mask id="c" width="92" height="22" x="0" y="4" maskUnits="userSpaceOnUse" style="mask-type:luminance"><path fill="#fff" d="M0 4.545h92v20.909H0V4.544Z"/></mask><g fill="#BDBDBD" mask="url(#c)"><path fill-rule="evenodd" d="M7.84 19.181a2.614 2.614 0 0 1-2.613-2.613V4.545H0v12.023a7.84 7.84 0 0 0 7.84 7.84h5.75v-5.227H7.84Zm15.683-9.409a4.704 4.704 0 1 0 0 9.41 4.704 4.704 0 0 0 0-9.41Zm-9.932 4.705c0-5.485 4.447-9.932 9.932-9.932s9.932 4.447 9.932 9.932-4.447 9.932-9.932 9.932-9.932-4.447-9.932-9.932Zm66.386-4.705a4.705 4.705 0 1 0 0 9.41 4.705 4.705 0 0 0 0-9.41Zm-9.931 4.705c0-5.485 4.446-9.932 9.931-9.932 5.485 0 9.932 4.447 9.932 9.932s-4.447 9.932-9.932 9.932-9.931-4.447-9.931-9.932ZM44.431 4.545c-5.485 0-9.932 4.447-9.932 9.932s4.447 9.932 9.932 9.932h14.636a9.93 9.93 0 0 0 2.956-.448l2.794 1.493 3.015-5.648A9.935 9.935 0 0 0 69 15.136v-.66c0-5.484-4.447-9.931-9.932-9.931H44.432Zm19.34 9.932a4.704 4.704 0 0 0-4.704-4.705H44.432a4.705 4.705 0 0 0 0 9.41h14.636a4.703 4.703 0 0 0 4.705-4.669v-.036Z" clip-rule="evenodd"/><path d="M92 5.852a1.306 1.306 0 1 1-2.612.074A1.306 1.306 0 0 1 92 5.852Z"/></g></g></g><defs><clipPath id="a"><path fill="#fff" d="M0 3.5h92v23H0z"/></clipPath><clipPath id="b"><path fill="#fff" d="M0 4.545h92v20.909H0z"/></clipPath></defs></svg>