<svg xmlns="http://www.w3.org/2000/svg" width="92" height="30" fill="none"><g clip-path="url(#a)"><g clip-path="url(#b)"><mask id="c" width="92" height="22" x="0" y="4" maskUnits="userSpaceOnUse" style="mask-type:luminance"><path fill="#fff" d="M.11 4.186h91.458v21.647H.11V4.186Z"/></mask><g fill="#BDBDBD" mask="url(#c)"><path fill-rule="evenodd" d="M5.529 5.54v20.293H.109V5.54h5.42Zm2.71 0h11.517c3.741 0 6.775 3.027 6.775 6.764 0 3.736-3.034 6.764-6.775 6.764h-6.097v6.765h-5.42V5.54Zm5.42 8.117h6.097a1.353 1.353 0 1 0 0-2.706h-6.097v2.706Zm33.196-8.118v10.485a4.4 4.4 0 0 0 4.404 4.397 4.4 4.4 0 0 0 4.403-4.397V5.54h5.42v10.485c0 5.418-4.398 9.81-9.823 9.81-5.426 0-9.824-4.392-9.824-9.81V5.54h5.42Z" clip-rule="evenodd"/><path fill-rule="evenodd" d="M28.564 15.01c0-5.23 4.246-9.47 9.484-9.47h1.356v5.41h-1.356a4.061 4.061 0 0 0-4.064 4.06v.676c0 5.604-4.55 10.147-10.163 10.147h-.677v-5.412h.678a4.739 4.739 0 0 0 4.742-4.735v-.676Z" clip-rule="evenodd"/><path d="M91.567 6.215a2.032 2.032 0 1 1-3.47-1.436 2.03 2.03 0 0 1 2.215-.44 2.032 2.032 0 0 1 1.255 1.876ZM66.9 25.833l2.586-10.814 1.923 6.505c1.146 3.88 6.65 3.88 7.797 0l1.923-6.505 2.586 10.814h5.572L85.22 8.829c-.967-4.044-6.673-4.194-7.852-.206l-2.06 6.972-2.061-6.972c-1.178-3.988-6.885-3.838-7.853.205l-4.066 17.004H66.9Z"/></g></g></g><defs><clipPath id="a"><path fill="#fff" d="M0 3.5h92v23H0z"/></clipPath><clipPath id="b"><path fill="#fff" d="M0 3.5h92v23H0z"/></clipPath></defs></svg>